<?xml version="1.0" encoding="UTF-8" standalone="no"?>
<!-- Created with Inkscape (http://www.inkscape.org/) -->
<svg xmlns:inkscape="http://www.inkscape.org/namespaces/inkscape" xmlns:rdf="http://www.w3.org/1999/02/22-rdf-syntax-ns#" xmlns="http://www.w3.org/2000/svg" xmlns:xlink="http://www.w3.org/1999/xlink" xmlns:ns1="http://sozi.baierouge.fr" xmlns:cc="http://creativecommons.org/ns#" xmlns:sodipodi="http://sodipodi.sourceforge.net/DTD/sodipodi-0.dtd" xmlns:dc="http://purl.org/dc/elements/1.1/" id="svg2" xml:space="preserve" viewBox="0 0 37.35 37.35" version="1.1" inkscape:version="0.91 r13725">
  <defs id="defs6">
    <radialGradient id="radialGradient24" gradientUnits="userSpaceOnUse" cy=".1416" cx="25.81" gradientTransform="matrix(.56568 -.56568 .56568 .56568 -.16016 29.72)" r="15.38">
      <stop id="stop26" style="stop-color:#e8f4f7" offset="0"/>
      <stop id="stop28" style="stop-color:#e6f3f6" offset=".46270"/>
      <stop id="stop30" style="stop-color:#deeff3" offset=".7137"/>
      <stop id="stop32" style="stop-color:#d0e8ee" offset=".90980"/>
      <stop id="stop34" style="stop-color:#c7e4eb" offset="1"/>
    </radialGradient>
    <clipPath id="clipPath42">
      <path id="path44" d="m0-0.12h30v30h-30v-30z" inkscape:connector-curvature="0"/>
    </clipPath>
    <mask id="mask46">
      <g id="g48">
        <g id="g50" clip-path="url(#clipPath42)">
          <path id="path52" style="fill:#000000;fill-opacity:.67190" d="m0-0.12h30v30h-30v-30z" inkscape:connector-curvature="0"/>
        </g>
      </g>
    </mask>
    <clipPath id="clipPath58">
      <path id="path60" d="m0-0.12h30v30h-30v-30z" inkscape:connector-curvature="0"/>
    </clipPath>
    <clipPath id="clipPath62">
      <path id="path64" d="m0 0h30v30h-30v-30z" inkscape:connector-curvature="0"/>
    </clipPath>
    <clipPath id="clipPath92">
      <path id="path94" d="m4 1.88h24v15h-24v-15z" inkscape:connector-curvature="0"/>
    </clipPath>
    <mask id="mask96">
      <g id="g98">
        <g id="g100" clip-path="url(#clipPath92)">
          <path id="path102" style="fill:#000000;fill-opacity:.33980" d="m4 1.88h24v15h-24v-15z" inkscape:connector-curvature="0"/>
        </g>
      </g>
    </mask>
    <clipPath id="clipPath108">
      <path id="path110" d="m4 1.88h24v15h-24v-15z" inkscape:connector-curvature="0"/>
    </clipPath>
    <clipPath id="clipPath112">
      <path id="path114" d="m4 2h24v15h-24v-15z" inkscape:connector-curvature="0"/>
    </clipPath>
  </defs>
  <g id="g10" transform="matrix(1.25 0 0 -1.25 0 37.35)">
    <g id="g12">
      <g id="g14">
        <g id="g16">
          <g id="g22">
            <path id="path36" style="fill-rule:evenodd;fill:url(#radialGradient24)" d="m29.68 14.919c0-4.051-1.442-7.519-4.321-10.398s-6.359-4.321-10.437-4.321c-4.055 0-7.524 1.442-10.402 4.321-2.879 2.879-4.321 6.347-4.321 10.398 0 4.082 1.442 7.559 4.321 10.441 2.878 2.879 6.347 4.321 10.402 4.321 4.078 0 7.558-1.442 10.437-4.321 2.879-2.878 4.321-6.359 4.321-10.441z" inkscape:connector-curvature="0"/>
          </g>
        </g>
      </g>
      <g id="g38">
        <g id="g54" mask="url(#mask46)">
          <g id="g66">
            <g id="g68" clip-path="url(#clipPath58)">
              <g id="g70" transform="translate(0 -0.12)">
                <g id="g74">
                  <g id="g76" clip-path="url(#clipPath62)">
                    <g id="g78">
                      <g id="g80" transform="translate(0,30)">
                        <path id="path82" style="stroke:#ffffff;stroke-width:0.4;fill:none" d="m29.68-14.961c0-4.051-1.442-7.519-4.321-10.398s-6.359-4.321-10.437-4.321c-4.055 0-7.524 1.442-10.402 4.321-2.879 2.879-4.321 6.347-4.321 10.398 0 4.082 1.442 7.563 4.321 10.441 2.878 2.879 6.347 4.321 10.402 4.321 4.078 0 7.558-1.442 10.437-4.321 2.879-2.878 4.321-6.359 4.321-10.441z" inkscape:connector-curvature="0"/>
                      </g>
                    </g>
                  </g>
                </g>
              </g>
            </g>
          </g>
        </g>
      </g>
      <path id="path84" style="fill-rule:evenodd;fill:#ffffff" d="m7.238 24.36c1.977-0.054 2.231-1 0.762-2.839-1.547-1.946-2.613-2.602-3.199-1.961-0.535 0.558-0.496 1.492 0.121 2.8 0.613 1.36 1.383 2.028 2.316 2z" inkscape:connector-curvature="0"/>
      <path id="path86" style="fill-rule:evenodd;fill:#ffffff" d="m4.039 18.118c0.508-0.105 0.668-0.476 0.481-1.117-0.188-0.668-0.465-0.883-0.84-0.641-0.321 0.239-0.426 0.614-0.321 1.122 0.133 0.476 0.36 0.691 0.68 0.636z" inkscape:connector-curvature="0"/>
      <g id="g88">
        <g id="g104" mask="url(#mask96)">
          <g id="g116">
            <g id="g118" clip-path="url(#clipPath108)">
              <g id="g120" transform="translate(0 -0.12)">
                <g id="g124">
                  <g id="g126" clip-path="url(#clipPath112)">
                    <g id="g128">
                      <path id="path130" style="fill-rule:evenodd;fill:#ffffff" d="m27.68 16.922c0.265-1.524 0.105-3.227-0.481-5.121-1.144-3.762-3.824-6.535-8.039-8.321-3.172-1.335-6.574-1.226-10.199 0.321-1.645 0.726-3.023 1.543-4.141 2.461 0.832-0.637 1.957-1.18 3.379-1.621 3.227-0.989 6.75-0.786 10.563 0.597 3.437 1.227 5.957 3.551 7.558 6.961 0.801 1.68 1.254 3.254 1.36 4.723z" inkscape:connector-curvature="0"/>
                    </g>
                  </g>
                </g>
              </g>
            </g>
          </g>
        </g>
      </g>
    </g>
  </g>
<metadata><rdf:RDF><cc:Work><dc:format>image/svg+xml</dc:format><dc:type rdf:resource="http://purl.org/dc/dcmitype/StillImage"/><cc:license rdf:resource="http://creativecommons.org/licenses/publicdomain/"/><dc:publisher><cc:Agent rdf:about="http://openclipart.org/"><dc:title>Openclipart</dc:title></cc:Agent></dc:publisher></cc:Work><cc:License rdf:about="http://creativecommons.org/licenses/publicdomain/"><cc:permits rdf:resource="http://creativecommons.org/ns#Reproduction"/><cc:permits rdf:resource="http://creativecommons.org/ns#Distribution"/><cc:permits rdf:resource="http://creativecommons.org/ns#DerivativeWorks"/></cc:License></rdf:RDF></metadata></svg>
